<svg width="32" height="32" viewBox="0 0 32 32" fill="none" xmlns="http://www.w3.org/2000/svg">
<path d="M8.5 25V23.5C8.5 19.3579 11.8579 16 16 16C20.1421 16 23.5 19.3579 23.5 23.5V25" stroke="black" stroke-width="2" stroke-linecap="round"/>
<path d="M16 16C18.4854 16 20.5 13.9854 20.5 11.5C20.5 9.01473 18.4854 7 16 7C13.5146 7 11.5 9.01473 11.5 11.5C11.5 13.9854 13.5146 16 16 16Z" stroke="black" stroke-width="2" stroke-linecap="round" stroke-linejoin="round"/>
<path d="M16 31C24.2843 31 31 24.2843 31 16C31 7.71573 24.2843 1 16 1C7.71573 1 1 7.71573 1 16C1 24.2843 7.71573 31 16 31Z" stroke="black" stroke-width="2"/>
</svg>
