<svg width="52" height="50" viewBox="0 0 52 50" fill="none" xmlns="http://www.w3.org/2000/svg">
<g clip-path="url(#clip0_15_76)">
<path fill-rule="evenodd" clip-rule="evenodd" d="M24.9198 0H27.0891C40.795 0 52.009 11.25 52.009 25C52.009 38.75 40.795 50 27.0891 50H24.9198C11.2139 50 0 38.75 0 25C0 11.25 11.2139 0 24.9198 0Z" fill="#33CC33"/>
<path fill-rule="evenodd" clip-rule="evenodd" d="M26.2734 37.0953C23.7276 37.0953 21.3612 36.3219 19.3711 35.027L14.5665 36.5557L16.1172 31.9155C14.6113 29.8831 13.7238 27.3201 13.7238 24.5863C13.7238 24.1816 13.7507 23.795 13.8045 23.3903C14.4141 17.0593 19.7835 12.1133 26.2644 12.1133C32.853 12.1133 38.2672 17.1942 38.7782 23.6151C38.7961 23.9478 38.7961 24.2806 38.7961 24.5773C38.805 31.4748 33.1757 37.0953 26.2734 37.0953ZM41.1626 24.2266C40.9654 16.196 34.3768 9.76617 26.2734 9.76617C18.2596 9.76617 11.7249 16.0432 11.3932 23.9478C11.3753 24.1547 11.3753 24.3885 11.3753 24.5773C11.3753 27.3921 12.1641 30.009 13.5087 32.2662L10.8195 40.2248L19.0843 37.5989C21.2177 38.777 23.6828 39.4244 26.2824 39.4244C34.5203 39.4244 41.2074 32.7967 41.2074 24.5773C41.1984 24.4604 41.1626 24.3525 41.1626 24.2266Z" fill="white"/>
<path fill-rule="evenodd" clip-rule="evenodd" d="M30.621 26.277C30.2534 26.187 30.0293 26.0971 29.7694 26.4838C29.3929 27.0773 28.613 28.3723 27.8421 27.9946C27.4567 27.8147 26.2914 27.437 24.893 26.187C23.8083 25.2068 23.0554 24.0378 22.8582 23.687C22.5355 23.0845 23.5484 22.446 23.9249 21.6906C24.0504 21.4388 23.9966 21.232 23.898 21.0611C23.8263 20.8813 23.0912 19.0737 22.7775 18.3633C22.4727 17.6259 22.1679 17.7518 21.9707 17.7518C19.9359 17.7518 18.9857 19.1996 18.9857 21.223C18.9857 21.6277 19.0664 22.0683 19.1919 22.446C19.5504 23.741 20.3662 24.7931 20.4827 24.973C20.662 25.2248 23.0016 29.0018 26.7216 30.4586C30.4596 31.9154 30.4596 31.4208 31.1229 31.3759C31.7773 31.3219 33.2743 30.5126 33.588 29.6403C33.8928 28.7949 33.8928 28.0575 33.7852 27.9047C33.6687 27.6708 30.621 26.286 30.621 26.277Z" fill="white"/>
</g>
<defs>
<clipPath id="clip0_15_76">
<rect width="52" height="50" fill="white"/>
</clipPath>
</defs>
</svg>
